<mxfile host="app.diagrams.net" agent="Mozilla/5.0 (Windows NT 10.0; Win64; x64) AppleWebKit/537.36 (KHTML, like Gecko) Chrome/118.0.0.0 Safari/537.36 Edg/118.0.2088.76" version="25.0.3">
  <diagram name="第 1 页" id="3Zt6k75vGQV0ZpBqQx4j">
    <mxGraphModel dx="789" dy="546" grid="1" gridSize="10" guides="1" tooltips="1" connect="1" arrows="1" fold="1" page="1" pageScale="1" pageWidth="1169" pageHeight="827" math="0" shadow="0">
      <root>
        <mxCell id="0" />
        <mxCell id="1" parent="0" />
        <mxCell id="OvamomFW4czp7mVpQxJ_-1" value="" style="rounded=0;whiteSpace=wrap;html=1;" vertex="1" parent="1">
          <mxGeometry x="170" y="188" width="840" height="60" as="geometry" />
        </mxCell>
        <mxCell id="OvamomFW4czp7mVpQxJ_-2" value="" style="whiteSpace=wrap;html=1;aspect=fixed;fillColor=#dae8fc;strokeColor=#6c8ebf;" vertex="1" parent="1">
          <mxGeometry x="180" y="198" width="40" height="40" as="geometry" />
        </mxCell>
        <mxCell id="OvamomFW4czp7mVpQxJ_-3" value="" style="whiteSpace=wrap;html=1;aspect=fixed;fillColor=#dae8fc;strokeColor=#6c8ebf;" vertex="1" parent="1">
          <mxGeometry x="240" y="198" width="40" height="40" as="geometry" />
        </mxCell>
        <mxCell id="OvamomFW4czp7mVpQxJ_-4" value="" style="whiteSpace=wrap;html=1;aspect=fixed;fillColor=#dae8fc;strokeColor=#6c8ebf;" vertex="1" parent="1">
          <mxGeometry x="300" y="198" width="40" height="40" as="geometry" />
        </mxCell>
        <mxCell id="OvamomFW4czp7mVpQxJ_-6" value="" style="whiteSpace=wrap;html=1;aspect=fixed;fillColor=#dae8fc;strokeColor=#6c8ebf;" vertex="1" parent="1">
          <mxGeometry x="360" y="198" width="40" height="40" as="geometry" />
        </mxCell>
        <mxCell id="OvamomFW4czp7mVpQxJ_-7" value="" style="whiteSpace=wrap;html=1;aspect=fixed;fillColor=#dae8fc;strokeColor=#6c8ebf;" vertex="1" parent="1">
          <mxGeometry x="420" y="198" width="40" height="40" as="geometry" />
        </mxCell>
        <mxCell id="OvamomFW4czp7mVpQxJ_-8" value="" style="whiteSpace=wrap;html=1;aspect=fixed;fillColor=#dae8fc;strokeColor=#6c8ebf;" vertex="1" parent="1">
          <mxGeometry x="480" y="198" width="40" height="40" as="geometry" />
        </mxCell>
        <mxCell id="OvamomFW4czp7mVpQxJ_-9" value="" style="whiteSpace=wrap;html=1;aspect=fixed;fillColor=#dae8fc;strokeColor=#6c8ebf;" vertex="1" parent="1">
          <mxGeometry x="540" y="198" width="40" height="40" as="geometry" />
        </mxCell>
        <mxCell id="OvamomFW4czp7mVpQxJ_-10" value="" style="whiteSpace=wrap;html=1;aspect=fixed;fillColor=#dae8fc;strokeColor=#6c8ebf;" vertex="1" parent="1">
          <mxGeometry x="600" y="198" width="40" height="40" as="geometry" />
        </mxCell>
        <mxCell id="OvamomFW4czp7mVpQxJ_-11" value="" style="whiteSpace=wrap;html=1;aspect=fixed;fillColor=#dae8fc;strokeColor=#6c8ebf;" vertex="1" parent="1">
          <mxGeometry x="660" y="198" width="40" height="40" as="geometry" />
        </mxCell>
        <mxCell id="OvamomFW4czp7mVpQxJ_-12" value="" style="whiteSpace=wrap;html=1;aspect=fixed;fillColor=#dae8fc;strokeColor=#6c8ebf;" vertex="1" parent="1">
          <mxGeometry x="720" y="198" width="40" height="40" as="geometry" />
        </mxCell>
        <mxCell id="OvamomFW4czp7mVpQxJ_-13" value="" style="whiteSpace=wrap;html=1;aspect=fixed;fillColor=#dae8fc;strokeColor=#6c8ebf;" vertex="1" parent="1">
          <mxGeometry x="780" y="198" width="40" height="40" as="geometry" />
        </mxCell>
        <mxCell id="OvamomFW4czp7mVpQxJ_-14" value="" style="whiteSpace=wrap;html=1;aspect=fixed;fillColor=#dae8fc;strokeColor=#6c8ebf;" vertex="1" parent="1">
          <mxGeometry x="840" y="198" width="40" height="40" as="geometry" />
        </mxCell>
        <mxCell id="OvamomFW4czp7mVpQxJ_-15" value="" style="whiteSpace=wrap;html=1;aspect=fixed;fillColor=#dae8fc;strokeColor=#6c8ebf;" vertex="1" parent="1">
          <mxGeometry x="900" y="198" width="40" height="40" as="geometry" />
        </mxCell>
        <mxCell id="OvamomFW4czp7mVpQxJ_-16" value="" style="whiteSpace=wrap;html=1;aspect=fixed;fillColor=#dae8fc;strokeColor=#6c8ebf;" vertex="1" parent="1">
          <mxGeometry x="960" y="198" width="40" height="40" as="geometry" />
        </mxCell>
        <mxCell id="OvamomFW4czp7mVpQxJ_-17" value="" style="shape=flexArrow;endArrow=classic;html=1;rounded=0;entryX=0.53;entryY=0.029;entryDx=0;entryDy=0;entryPerimeter=0;" edge="1" parent="1" source="OvamomFW4czp7mVpQxJ_-20" target="OvamomFW4czp7mVpQxJ_-69">
          <mxGeometry width="50" height="50" relative="1" as="geometry">
            <mxPoint x="610" y="168" as="sourcePoint" />
            <mxPoint x="610" y="298" as="targetPoint" />
          </mxGeometry>
        </mxCell>
        <mxCell id="OvamomFW4czp7mVpQxJ_-20" value="按个位排序" style="text;html=1;align=center;verticalAlign=middle;whiteSpace=wrap;rounded=0;" vertex="1" parent="1">
          <mxGeometry x="580" y="248" width="70" height="20" as="geometry" />
        </mxCell>
        <mxCell id="OvamomFW4czp7mVpQxJ_-69" value="" style="rounded=0;whiteSpace=wrap;html=1;" vertex="1" parent="1">
          <mxGeometry x="170" y="308" width="840" height="60" as="geometry" />
        </mxCell>
        <mxCell id="OvamomFW4czp7mVpQxJ_-70" value="" style="whiteSpace=wrap;html=1;aspect=fixed;fillColor=#dae8fc;strokeColor=#6c8ebf;" vertex="1" parent="1">
          <mxGeometry x="180" y="318" width="40" height="40" as="geometry" />
        </mxCell>
        <mxCell id="OvamomFW4czp7mVpQxJ_-71" value="" style="whiteSpace=wrap;html=1;aspect=fixed;fillColor=#dae8fc;strokeColor=#6c8ebf;" vertex="1" parent="1">
          <mxGeometry x="240" y="318" width="40" height="40" as="geometry" />
        </mxCell>
        <mxCell id="OvamomFW4czp7mVpQxJ_-72" value="" style="whiteSpace=wrap;html=1;aspect=fixed;fillColor=#dae8fc;strokeColor=#6c8ebf;" vertex="1" parent="1">
          <mxGeometry x="300" y="318" width="40" height="40" as="geometry" />
        </mxCell>
        <mxCell id="OvamomFW4czp7mVpQxJ_-73" value="" style="whiteSpace=wrap;html=1;aspect=fixed;fillColor=#dae8fc;strokeColor=#6c8ebf;" vertex="1" parent="1">
          <mxGeometry x="360" y="318" width="40" height="40" as="geometry" />
        </mxCell>
        <mxCell id="OvamomFW4czp7mVpQxJ_-74" value="" style="whiteSpace=wrap;html=1;aspect=fixed;fillColor=#dae8fc;strokeColor=#6c8ebf;" vertex="1" parent="1">
          <mxGeometry x="420" y="318" width="40" height="40" as="geometry" />
        </mxCell>
        <mxCell id="OvamomFW4czp7mVpQxJ_-75" value="" style="whiteSpace=wrap;html=1;aspect=fixed;fillColor=#dae8fc;strokeColor=#6c8ebf;" vertex="1" parent="1">
          <mxGeometry x="480" y="318" width="40" height="40" as="geometry" />
        </mxCell>
        <mxCell id="OvamomFW4czp7mVpQxJ_-76" value="" style="whiteSpace=wrap;html=1;aspect=fixed;fillColor=#dae8fc;strokeColor=#6c8ebf;" vertex="1" parent="1">
          <mxGeometry x="540" y="318" width="40" height="40" as="geometry" />
        </mxCell>
        <mxCell id="OvamomFW4czp7mVpQxJ_-77" value="" style="whiteSpace=wrap;html=1;aspect=fixed;fillColor=#dae8fc;strokeColor=#6c8ebf;" vertex="1" parent="1">
          <mxGeometry x="600" y="318" width="40" height="40" as="geometry" />
        </mxCell>
        <mxCell id="OvamomFW4czp7mVpQxJ_-78" value="" style="whiteSpace=wrap;html=1;aspect=fixed;fillColor=#dae8fc;strokeColor=#6c8ebf;" vertex="1" parent="1">
          <mxGeometry x="660" y="318" width="40" height="40" as="geometry" />
        </mxCell>
        <mxCell id="OvamomFW4czp7mVpQxJ_-79" value="" style="whiteSpace=wrap;html=1;aspect=fixed;fillColor=#dae8fc;strokeColor=#6c8ebf;" vertex="1" parent="1">
          <mxGeometry x="720" y="318" width="40" height="40" as="geometry" />
        </mxCell>
        <mxCell id="OvamomFW4czp7mVpQxJ_-80" value="" style="whiteSpace=wrap;html=1;aspect=fixed;fillColor=#dae8fc;strokeColor=#6c8ebf;" vertex="1" parent="1">
          <mxGeometry x="780" y="318" width="40" height="40" as="geometry" />
        </mxCell>
        <mxCell id="OvamomFW4czp7mVpQxJ_-81" value="" style="whiteSpace=wrap;html=1;aspect=fixed;fillColor=#dae8fc;strokeColor=#6c8ebf;" vertex="1" parent="1">
          <mxGeometry x="840" y="318" width="40" height="40" as="geometry" />
        </mxCell>
        <mxCell id="OvamomFW4czp7mVpQxJ_-82" value="" style="whiteSpace=wrap;html=1;aspect=fixed;fillColor=#dae8fc;strokeColor=#6c8ebf;" vertex="1" parent="1">
          <mxGeometry x="900" y="318" width="40" height="40" as="geometry" />
        </mxCell>
        <mxCell id="OvamomFW4czp7mVpQxJ_-83" value="" style="whiteSpace=wrap;html=1;aspect=fixed;fillColor=#dae8fc;strokeColor=#6c8ebf;" vertex="1" parent="1">
          <mxGeometry x="960" y="318" width="40" height="40" as="geometry" />
        </mxCell>
        <mxCell id="OvamomFW4czp7mVpQxJ_-101" value="" style="shape=flexArrow;endArrow=classic;html=1;rounded=0;entryX=0.53;entryY=0.029;entryDx=0;entryDy=0;entryPerimeter=0;" edge="1" parent="1" target="OvamomFW4czp7mVpQxJ_-103">
          <mxGeometry width="50" height="50" relative="1" as="geometry">
            <mxPoint x="615.0386548125241" y="387.9999999999999" as="sourcePoint" />
            <mxPoint x="610" y="418" as="targetPoint" />
          </mxGeometry>
        </mxCell>
        <mxCell id="OvamomFW4czp7mVpQxJ_-103" value="" style="rounded=0;whiteSpace=wrap;html=1;" vertex="1" parent="1">
          <mxGeometry x="170" y="428" width="840" height="60" as="geometry" />
        </mxCell>
        <mxCell id="OvamomFW4czp7mVpQxJ_-104" value="" style="whiteSpace=wrap;html=1;aspect=fixed;fillColor=#dae8fc;strokeColor=#6c8ebf;" vertex="1" parent="1">
          <mxGeometry x="180" y="438" width="40" height="40" as="geometry" />
        </mxCell>
        <mxCell id="OvamomFW4czp7mVpQxJ_-105" value="" style="whiteSpace=wrap;html=1;aspect=fixed;fillColor=#dae8fc;strokeColor=#6c8ebf;" vertex="1" parent="1">
          <mxGeometry x="240" y="438" width="40" height="40" as="geometry" />
        </mxCell>
        <mxCell id="OvamomFW4czp7mVpQxJ_-106" value="" style="whiteSpace=wrap;html=1;aspect=fixed;fillColor=#dae8fc;strokeColor=#6c8ebf;" vertex="1" parent="1">
          <mxGeometry x="300" y="438" width="40" height="40" as="geometry" />
        </mxCell>
        <mxCell id="OvamomFW4czp7mVpQxJ_-107" value="" style="whiteSpace=wrap;html=1;aspect=fixed;fillColor=#dae8fc;strokeColor=#6c8ebf;" vertex="1" parent="1">
          <mxGeometry x="360" y="438" width="40" height="40" as="geometry" />
        </mxCell>
        <mxCell id="OvamomFW4czp7mVpQxJ_-108" value="" style="whiteSpace=wrap;html=1;aspect=fixed;fillColor=#dae8fc;strokeColor=#6c8ebf;" vertex="1" parent="1">
          <mxGeometry x="420" y="438" width="40" height="40" as="geometry" />
        </mxCell>
        <mxCell id="OvamomFW4czp7mVpQxJ_-109" value="" style="whiteSpace=wrap;html=1;aspect=fixed;fillColor=#dae8fc;strokeColor=#6c8ebf;" vertex="1" parent="1">
          <mxGeometry x="480" y="438" width="40" height="40" as="geometry" />
        </mxCell>
        <mxCell id="OvamomFW4czp7mVpQxJ_-110" value="" style="whiteSpace=wrap;html=1;aspect=fixed;fillColor=#dae8fc;strokeColor=#6c8ebf;" vertex="1" parent="1">
          <mxGeometry x="540" y="438" width="40" height="40" as="geometry" />
        </mxCell>
        <mxCell id="OvamomFW4czp7mVpQxJ_-111" value="" style="whiteSpace=wrap;html=1;aspect=fixed;fillColor=#dae8fc;strokeColor=#6c8ebf;" vertex="1" parent="1">
          <mxGeometry x="600" y="438" width="40" height="40" as="geometry" />
        </mxCell>
        <mxCell id="OvamomFW4czp7mVpQxJ_-112" value="" style="whiteSpace=wrap;html=1;aspect=fixed;fillColor=#dae8fc;strokeColor=#6c8ebf;" vertex="1" parent="1">
          <mxGeometry x="660" y="438" width="40" height="40" as="geometry" />
        </mxCell>
        <mxCell id="OvamomFW4czp7mVpQxJ_-113" value="" style="whiteSpace=wrap;html=1;aspect=fixed;fillColor=#dae8fc;strokeColor=#6c8ebf;" vertex="1" parent="1">
          <mxGeometry x="720" y="438" width="40" height="40" as="geometry" />
        </mxCell>
        <mxCell id="OvamomFW4czp7mVpQxJ_-114" value="" style="whiteSpace=wrap;html=1;aspect=fixed;fillColor=#dae8fc;strokeColor=#6c8ebf;" vertex="1" parent="1">
          <mxGeometry x="780" y="438" width="40" height="40" as="geometry" />
        </mxCell>
        <mxCell id="OvamomFW4czp7mVpQxJ_-115" value="" style="whiteSpace=wrap;html=1;aspect=fixed;fillColor=#dae8fc;strokeColor=#6c8ebf;" vertex="1" parent="1">
          <mxGeometry x="840" y="438" width="40" height="40" as="geometry" />
        </mxCell>
        <mxCell id="OvamomFW4czp7mVpQxJ_-116" value="" style="whiteSpace=wrap;html=1;aspect=fixed;fillColor=#dae8fc;strokeColor=#6c8ebf;" vertex="1" parent="1">
          <mxGeometry x="900" y="438" width="40" height="40" as="geometry" />
        </mxCell>
        <mxCell id="OvamomFW4czp7mVpQxJ_-117" value="" style="whiteSpace=wrap;html=1;aspect=fixed;fillColor=#dae8fc;strokeColor=#6c8ebf;" vertex="1" parent="1">
          <mxGeometry x="960" y="438" width="40" height="40" as="geometry" />
        </mxCell>
        <mxCell id="OvamomFW4czp7mVpQxJ_-119" value="按十位排序" style="text;html=1;align=center;verticalAlign=middle;whiteSpace=wrap;rounded=0;" vertex="1" parent="1">
          <mxGeometry x="580" y="368" width="70" height="30" as="geometry" />
        </mxCell>
        <mxCell id="OvamomFW4czp7mVpQxJ_-120" value="" style="shape=waypoint;sketch=0;fillStyle=solid;size=6;pointerEvents=1;points=[];fillColor=none;resizable=0;rotatable=0;perimeter=centerPerimeter;snapToPoint=1;" vertex="1" parent="1">
          <mxGeometry x="590" y="498" width="20" height="20" as="geometry" />
        </mxCell>
        <mxCell id="OvamomFW4czp7mVpQxJ_-121" value="" style="shape=waypoint;sketch=0;fillStyle=solid;size=6;pointerEvents=1;points=[];fillColor=none;resizable=0;rotatable=0;perimeter=centerPerimeter;snapToPoint=1;" vertex="1" parent="1">
          <mxGeometry x="610" y="498" width="20" height="20" as="geometry" />
        </mxCell>
        <mxCell id="OvamomFW4czp7mVpQxJ_-122" value="" style="shape=waypoint;sketch=0;fillStyle=solid;size=6;pointerEvents=1;points=[];fillColor=none;resizable=0;rotatable=0;perimeter=centerPerimeter;snapToPoint=1;" vertex="1" parent="1">
          <mxGeometry x="630" y="498" width="20" height="20" as="geometry" />
        </mxCell>
        <mxCell id="OvamomFW4czp7mVpQxJ_-123" value="" style="rounded=0;whiteSpace=wrap;html=1;" vertex="1" parent="1">
          <mxGeometry x="160" y="578" width="840" height="60" as="geometry" />
        </mxCell>
        <mxCell id="OvamomFW4czp7mVpQxJ_-124" value="" style="whiteSpace=wrap;html=1;aspect=fixed;fillColor=#dae8fc;strokeColor=#6c8ebf;" vertex="1" parent="1">
          <mxGeometry x="170" y="588" width="40" height="40" as="geometry" />
        </mxCell>
        <mxCell id="OvamomFW4czp7mVpQxJ_-125" value="" style="whiteSpace=wrap;html=1;aspect=fixed;fillColor=#dae8fc;strokeColor=#6c8ebf;" vertex="1" parent="1">
          <mxGeometry x="230" y="588" width="40" height="40" as="geometry" />
        </mxCell>
        <mxCell id="OvamomFW4czp7mVpQxJ_-126" value="" style="whiteSpace=wrap;html=1;aspect=fixed;fillColor=#dae8fc;strokeColor=#6c8ebf;" vertex="1" parent="1">
          <mxGeometry x="290" y="588" width="40" height="40" as="geometry" />
        </mxCell>
        <mxCell id="OvamomFW4czp7mVpQxJ_-127" value="" style="whiteSpace=wrap;html=1;aspect=fixed;fillColor=#dae8fc;strokeColor=#6c8ebf;" vertex="1" parent="1">
          <mxGeometry x="350" y="588" width="40" height="40" as="geometry" />
        </mxCell>
        <mxCell id="OvamomFW4czp7mVpQxJ_-128" value="" style="whiteSpace=wrap;html=1;aspect=fixed;fillColor=#dae8fc;strokeColor=#6c8ebf;" vertex="1" parent="1">
          <mxGeometry x="410" y="588" width="40" height="40" as="geometry" />
        </mxCell>
        <mxCell id="OvamomFW4czp7mVpQxJ_-129" value="" style="whiteSpace=wrap;html=1;aspect=fixed;fillColor=#dae8fc;strokeColor=#6c8ebf;" vertex="1" parent="1">
          <mxGeometry x="470" y="588" width="40" height="40" as="geometry" />
        </mxCell>
        <mxCell id="OvamomFW4czp7mVpQxJ_-130" value="" style="whiteSpace=wrap;html=1;aspect=fixed;fillColor=#dae8fc;strokeColor=#6c8ebf;" vertex="1" parent="1">
          <mxGeometry x="530" y="588" width="40" height="40" as="geometry" />
        </mxCell>
        <mxCell id="OvamomFW4czp7mVpQxJ_-131" value="" style="whiteSpace=wrap;html=1;aspect=fixed;fillColor=#dae8fc;strokeColor=#6c8ebf;" vertex="1" parent="1">
          <mxGeometry x="590" y="588" width="40" height="40" as="geometry" />
        </mxCell>
        <mxCell id="OvamomFW4czp7mVpQxJ_-132" value="" style="whiteSpace=wrap;html=1;aspect=fixed;fillColor=#dae8fc;strokeColor=#6c8ebf;" vertex="1" parent="1">
          <mxGeometry x="650" y="588" width="40" height="40" as="geometry" />
        </mxCell>
        <mxCell id="OvamomFW4czp7mVpQxJ_-133" value="" style="whiteSpace=wrap;html=1;aspect=fixed;fillColor=#dae8fc;strokeColor=#6c8ebf;" vertex="1" parent="1">
          <mxGeometry x="710" y="588" width="40" height="40" as="geometry" />
        </mxCell>
        <mxCell id="OvamomFW4czp7mVpQxJ_-134" value="" style="whiteSpace=wrap;html=1;aspect=fixed;fillColor=#dae8fc;strokeColor=#6c8ebf;" vertex="1" parent="1">
          <mxGeometry x="770" y="588" width="40" height="40" as="geometry" />
        </mxCell>
        <mxCell id="OvamomFW4czp7mVpQxJ_-135" value="" style="whiteSpace=wrap;html=1;aspect=fixed;fillColor=#dae8fc;strokeColor=#6c8ebf;" vertex="1" parent="1">
          <mxGeometry x="830" y="588" width="40" height="40" as="geometry" />
        </mxCell>
        <mxCell id="OvamomFW4czp7mVpQxJ_-136" value="" style="whiteSpace=wrap;html=1;aspect=fixed;fillColor=#dae8fc;strokeColor=#6c8ebf;" vertex="1" parent="1">
          <mxGeometry x="890" y="588" width="40" height="40" as="geometry" />
        </mxCell>
        <mxCell id="OvamomFW4czp7mVpQxJ_-137" value="" style="whiteSpace=wrap;html=1;aspect=fixed;fillColor=#dae8fc;strokeColor=#6c8ebf;" vertex="1" parent="1">
          <mxGeometry x="950" y="588" width="40" height="40" as="geometry" />
        </mxCell>
        <mxCell id="OvamomFW4czp7mVpQxJ_-138" value="" style="shape=flexArrow;endArrow=classic;html=1;rounded=0;entryX=0.53;entryY=0.029;entryDx=0;entryDy=0;entryPerimeter=0;" edge="1" parent="1">
          <mxGeometry width="50" height="50" relative="1" as="geometry">
            <mxPoint x="615" y="536" as="sourcePoint" />
            <mxPoint x="615" y="578" as="targetPoint" />
          </mxGeometry>
        </mxCell>
      </root>
    </mxGraphModel>
  </diagram>
</mxfile>
